<svg xmlns="http://www.w3.org/2000/svg" width="260" height="1008"><rect x="0" y="0" width="100%" height="100%" fill="rgb(0, 184, 148)"/><path d="M0 67 C 45.5 0, 85 0, 130 67 S 215 134, 260 67 S 345 0, 390, 67" fill="none" stroke="#ddd" style="opacity:0.089333333333333;stroke-width:28px;" transform="translate(-65, -100.5)"/><path d="M0 67 C 45.5 0, 85 0, 130 67 S 215 134, 260 67 S 345 0, 390, 67" fill="none" stroke="#ddd" style="opacity:0.089333333333333;stroke-width:28px;" transform="translate(-65, 907.5)"/><path d="M0 67 C 45.5 0, 85 0, 130 67 S 215 134, 260 67 S 345 0, 390, 67" fill="none" stroke="#ddd" style="opacity:0.089333333333333;stroke-width:28px;" transform="translate(-65, -72.5)"/><path d="M0 67 C 45.5 0, 85 0, 130 67 S 215 134, 260 67 S 345 0, 390, 67" fill="none" stroke="#ddd" style="opacity:0.089333333333333;stroke-width:28px;" transform="translate(-65, 935.5)"/><path d="M0 67 C 45.5 0, 85 0, 130 67 S 215 134, 260 67 S 345 0, 390, 67" fill="none" stroke="#ddd" style="opacity:0.14133333333333;stroke-width:28px;" transform="translate(-65, -44.5)"/><path d="M0 67 C 45.5 0, 85 0, 130 67 S 215 134, 260 67 S 345 0, 390, 67" fill="none" stroke="#ddd" style="opacity:0.14133333333333;stroke-width:28px;" transform="translate(-65, 963.5)"/><path d="M0 67 C 45.5 0, 85 0, 130 67 S 215 134, 260 67 S 345 0, 390, 67" fill="none" stroke="#ddd" style="opacity:0.072;stroke-width:28px;" transform="translate(-65, -16.5)"/><path d="M0 67 C 45.5 0, 85 0, 130 67 S 215 134, 260 67 S 345 0, 390, 67" fill="none" stroke="#ddd" style="opacity:0.072;stroke-width:28px;" transform="translate(-65, 991.5)"/><path d="M0 67 C 45.5 0, 85 0, 130 67 S 215 134, 260 67 S 345 0, 390, 67" fill="none" stroke="#222" style="opacity:0.028666666666667;stroke-width:28px;" transform="translate(-65, 11.5)"/><path d="M0 67 C 45.5 0, 85 0, 130 67 S 215 134, 260 67 S 345 0, 390, 67" fill="none" stroke="#222" style="opacity:0.028666666666667;stroke-width:28px;" transform="translate(-65, 1019.5)"/><path d="M0 67 C 45.5 0, 85 0, 130 67 S 215 134, 260 67 S 345 0, 390, 67" fill="none" stroke="#ddd" style="opacity:0.072;stroke-width:28px;" transform="translate(-65, 39.5)"/><path d="M0 67 C 45.5 0, 85 0, 130 67 S 215 134, 260 67 S 345 0, 390, 67" fill="none" stroke="#ddd" style="opacity:0.072;stroke-width:28px;" transform="translate(-65, 1047.5)"/><path d="M0 67 C 45.5 0, 85 0, 130 67 S 215 134, 260 67 S 345 0, 390, 67" fill="none" stroke="#222" style="opacity:0.080666666666667;stroke-width:28px;" transform="translate(-65, 67.5)"/><path d="M0 67 C 45.5 0, 85 0, 130 67 S 215 134, 260 67 S 345 0, 390, 67" fill="none" stroke="#222" style="opacity:0.080666666666667;stroke-width:28px;" transform="translate(-65, 1075.5)"/><path d="M0 67 C 45.5 0, 85 0, 130 67 S 215 134, 260 67 S 345 0, 390, 67" fill="none" stroke="#222" style="opacity:0.11533333333333;stroke-width:28px;" transform="translate(-65, 95.5)"/><path d="M0 67 C 45.5 0, 85 0, 130 67 S 215 134, 260 67 S 345 0, 390, 67" fill="none" stroke="#222" style="opacity:0.11533333333333;stroke-width:28px;" transform="translate(-65, 1103.5)"/><path d="M0 67 C 45.5 0, 85 0, 130 67 S 215 134, 260 67 S 345 0, 390, 67" fill="none" stroke="#222" style="opacity:0.046;stroke-width:28px;" transform="translate(-65, 123.5)"/><path d="M0 67 C 45.5 0, 85 0, 130 67 S 215 134, 260 67 S 345 0, 390, 67" fill="none" stroke="#222" style="opacity:0.046;stroke-width:28px;" transform="translate(-65, 1131.5)"/><path d="M0 67 C 45.5 0, 85 0, 130 67 S 215 134, 260 67 S 345 0, 390, 67" fill="none" stroke="#222" style="opacity:0.15;stroke-width:28px;" transform="translate(-65, 151.5)"/><path d="M0 67 C 45.5 0, 85 0, 130 67 S 215 134, 260 67 S 345 0, 390, 67" fill="none" stroke="#222" style="opacity:0.15;stroke-width:28px;" transform="translate(-65, 1159.5)"/><path d="M0 67 C 45.5 0, 85 0, 130 67 S 215 134, 260 67 S 345 0, 390, 67" fill="none" stroke="#ddd" style="opacity:0.089333333333333;stroke-width:28px;" transform="translate(-65, 179.5)"/><path d="M0 67 C 45.5 0, 85 0, 130 67 S 215 134, 260 67 S 345 0, 390, 67" fill="none" stroke="#ddd" style="opacity:0.089333333333333;stroke-width:28px;" transform="translate(-65, 1187.5)"/><path d="M0 67 C 45.5 0, 85 0, 130 67 S 215 134, 260 67 S 345 0, 390, 67" fill="none" stroke="#ddd" style="opacity:0.14133333333333;stroke-width:28px;" transform="translate(-65, 207.5)"/><path d="M0 67 C 45.5 0, 85 0, 130 67 S 215 134, 260 67 S 345 0, 390, 67" fill="none" stroke="#ddd" style="opacity:0.14133333333333;stroke-width:28px;" transform="translate(-65, 1215.5)"/><path d="M0 67 C 45.5 0, 85 0, 130 67 S 215 134, 260 67 S 345 0, 390, 67" fill="none" stroke="#ddd" style="opacity:0.02;stroke-width:28px;" transform="translate(-65, 235.5)"/><path d="M0 67 C 45.5 0, 85 0, 130 67 S 215 134, 260 67 S 345 0, 390, 67" fill="none" stroke="#ddd" style="opacity:0.02;stroke-width:28px;" transform="translate(-65, 1243.5)"/><path d="M0 67 C 45.5 0, 85 0, 130 67 S 215 134, 260 67 S 345 0, 390, 67" fill="none" stroke="#ddd" style="opacity:0.10666666666667;stroke-width:28px;" transform="translate(-65, 263.5)"/><path d="M0 67 C 45.5 0, 85 0, 130 67 S 215 134, 260 67 S 345 0, 390, 67" fill="none" stroke="#ddd" style="opacity:0.10666666666667;stroke-width:28px;" transform="translate(-65, 1271.5)"/><path d="M0 67 C 45.5 0, 85 0, 130 67 S 215 134, 260 67 S 345 0, 390, 67" fill="none" stroke="#ddd" style="opacity:0.054666666666667;stroke-width:28px;" transform="translate(-65, 291.5)"/><path d="M0 67 C 45.5 0, 85 0, 130 67 S 215 134, 260 67 S 345 0, 390, 67" fill="none" stroke="#ddd" style="opacity:0.054666666666667;stroke-width:28px;" transform="translate(-65, 1299.5)"/><path d="M0 67 C 45.5 0, 85 0, 130 67 S 215 134, 260 67 S 345 0, 390, 67" fill="none" stroke="#222" style="opacity:0.15;stroke-width:28px;" transform="translate(-65, 319.5)"/><path d="M0 67 C 45.5 0, 85 0, 130 67 S 215 134, 260 67 S 345 0, 390, 67" fill="none" stroke="#222" style="opacity:0.15;stroke-width:28px;" transform="translate(-65, 1327.5)"/><path d="M0 67 C 45.5 0, 85 0, 130 67 S 215 134, 260 67 S 345 0, 390, 67" fill="none" stroke="#ddd" style="opacity:0.02;stroke-width:28px;" transform="translate(-65, 347.5)"/><path d="M0 67 C 45.5 0, 85 0, 130 67 S 215 134, 260 67 S 345 0, 390, 67" fill="none" stroke="#ddd" style="opacity:0.02;stroke-width:28px;" transform="translate(-65, 1355.5)"/><path d="M0 67 C 45.5 0, 85 0, 130 67 S 215 134, 260 67 S 345 0, 390, 67" fill="none" stroke="#ddd" style="opacity:0.054666666666667;stroke-width:28px;" transform="translate(-65, 375.5)"/><path d="M0 67 C 45.5 0, 85 0, 130 67 S 215 134, 260 67 S 345 0, 390, 67" fill="none" stroke="#ddd" style="opacity:0.054666666666667;stroke-width:28px;" transform="translate(-65, 1383.5)"/><path d="M0 67 C 45.5 0, 85 0, 130 67 S 215 134, 260 67 S 345 0, 390, 67" fill="none" stroke="#222" style="opacity:0.098;stroke-width:28px;" transform="translate(-65, 403.5)"/><path d="M0 67 C 45.5 0, 85 0, 130 67 S 215 134, 260 67 S 345 0, 390, 67" fill="none" stroke="#222" style="opacity:0.098;stroke-width:28px;" transform="translate(-65, 1411.5)"/><path d="M0 67 C 45.5 0, 85 0, 130 67 S 215 134, 260 67 S 345 0, 390, 67" fill="none" stroke="#ddd" style="opacity:0.089333333333333;stroke-width:28px;" transform="translate(-65, 431.5)"/><path d="M0 67 C 45.5 0, 85 0, 130 67 S 215 134, 260 67 S 345 0, 390, 67" fill="none" stroke="#ddd" style="opacity:0.089333333333333;stroke-width:28px;" transform="translate(-65, 1439.5)"/><path d="M0 67 C 45.5 0, 85 0, 130 67 S 215 134, 260 67 S 345 0, 390, 67" fill="none" stroke="#ddd" style="opacity:0.054666666666667;stroke-width:28px;" transform="translate(-65, 459.5)"/><path d="M0 67 C 45.5 0, 85 0, 130 67 S 215 134, 260 67 S 345 0, 390, 67" fill="none" stroke="#ddd" style="opacity:0.054666666666667;stroke-width:28px;" transform="translate(-65, 1467.5)"/><path d="M0 67 C 45.5 0, 85 0, 130 67 S 215 134, 260 67 S 345 0, 390, 67" fill="none" stroke="#222" style="opacity:0.13266666666667;stroke-width:28px;" transform="translate(-65, 487.5)"/><path d="M0 67 C 45.5 0, 85 0, 130 67 S 215 134, 260 67 S 345 0, 390, 67" fill="none" stroke="#222" style="opacity:0.13266666666667;stroke-width:28px;" transform="translate(-65, 1495.5)"/><path d="M0 67 C 45.5 0, 85 0, 130 67 S 215 134, 260 67 S 345 0, 390, 67" fill="none" stroke="#222" style="opacity:0.098;stroke-width:28px;" transform="translate(-65, 515.5)"/><path d="M0 67 C 45.5 0, 85 0, 130 67 S 215 134, 260 67 S 345 0, 390, 67" fill="none" stroke="#222" style="opacity:0.098;stroke-width:28px;" transform="translate(-65, 1523.5)"/><path d="M0 67 C 45.5 0, 85 0, 130 67 S 215 134, 260 67 S 345 0, 390, 67" fill="none" stroke="#222" style="opacity:0.028666666666667;stroke-width:28px;" transform="translate(-65, 543.5)"/><path d="M0 67 C 45.5 0, 85 0, 130 67 S 215 134, 260 67 S 345 0, 390, 67" fill="none" stroke="#222" style="opacity:0.028666666666667;stroke-width:28px;" transform="translate(-65, 1551.5)"/><path d="M0 67 C 45.5 0, 85 0, 130 67 S 215 134, 260 67 S 345 0, 390, 67" fill="none" stroke="#222" style="opacity:0.11533333333333;stroke-width:28px;" transform="translate(-65, 571.5)"/><path d="M0 67 C 45.5 0, 85 0, 130 67 S 215 134, 260 67 S 345 0, 390, 67" fill="none" stroke="#222" style="opacity:0.11533333333333;stroke-width:28px;" transform="translate(-65, 1579.5)"/><path d="M0 67 C 45.5 0, 85 0, 130 67 S 215 134, 260 67 S 345 0, 390, 67" fill="none" stroke="#222" style="opacity:0.15;stroke-width:28px;" transform="translate(-65, 599.5)"/><path d="M0 67 C 45.5 0, 85 0, 130 67 S 215 134, 260 67 S 345 0, 390, 67" fill="none" stroke="#222" style="opacity:0.15;stroke-width:28px;" transform="translate(-65, 1607.5)"/><path d="M0 67 C 45.5 0, 85 0, 130 67 S 215 134, 260 67 S 345 0, 390, 67" fill="none" stroke="#ddd" style="opacity:0.02;stroke-width:28px;" transform="translate(-65, 627.5)"/><path d="M0 67 C 45.5 0, 85 0, 130 67 S 215 134, 260 67 S 345 0, 390, 67" fill="none" stroke="#ddd" style="opacity:0.02;stroke-width:28px;" transform="translate(-65, 1635.5)"/><path d="M0 67 C 45.5 0, 85 0, 130 67 S 215 134, 260 67 S 345 0, 390, 67" fill="none" stroke="#ddd" style="opacity:0.02;stroke-width:28px;" transform="translate(-65, 655.5)"/><path d="M0 67 C 45.5 0, 85 0, 130 67 S 215 134, 260 67 S 345 0, 390, 67" fill="none" stroke="#ddd" style="opacity:0.02;stroke-width:28px;" transform="translate(-65, 1663.5)"/><path d="M0 67 C 45.5 0, 85 0, 130 67 S 215 134, 260 67 S 345 0, 390, 67" fill="none" stroke="#222" style="opacity:0.080666666666667;stroke-width:28px;" transform="translate(-65, 683.5)"/><path d="M0 67 C 45.5 0, 85 0, 130 67 S 215 134, 260 67 S 345 0, 390, 67" fill="none" stroke="#222" style="opacity:0.080666666666667;stroke-width:28px;" transform="translate(-65, 1691.5)"/><path d="M0 67 C 45.5 0, 85 0, 130 67 S 215 134, 260 67 S 345 0, 390, 67" fill="none" stroke="#222" style="opacity:0.15;stroke-width:28px;" transform="translate(-65, 711.5)"/><path d="M0 67 C 45.5 0, 85 0, 130 67 S 215 134, 260 67 S 345 0, 390, 67" fill="none" stroke="#222" style="opacity:0.15;stroke-width:28px;" transform="translate(-65, 1719.5)"/><path d="M0 67 C 45.5 0, 85 0, 130 67 S 215 134, 260 67 S 345 0, 390, 67" fill="none" stroke="#ddd" style="opacity:0.10666666666667;stroke-width:28px;" transform="translate(-65, 739.5)"/><path d="M0 67 C 45.5 0, 85 0, 130 67 S 215 134, 260 67 S 345 0, 390, 67" fill="none" stroke="#ddd" style="opacity:0.10666666666667;stroke-width:28px;" transform="translate(-65, 1747.5)"/><path d="M0 67 C 45.5 0, 85 0, 130 67 S 215 134, 260 67 S 345 0, 390, 67" fill="none" stroke="#ddd" style="opacity:0.054666666666667;stroke-width:28px;" transform="translate(-65, 767.5)"/><path d="M0 67 C 45.5 0, 85 0, 130 67 S 215 134, 260 67 S 345 0, 390, 67" fill="none" stroke="#ddd" style="opacity:0.054666666666667;stroke-width:28px;" transform="translate(-65, 1775.5)"/><path d="M0 67 C 45.5 0, 85 0, 130 67 S 215 134, 260 67 S 345 0, 390, 67" fill="none" stroke="#ddd" style="opacity:0.037333333333333;stroke-width:28px;" transform="translate(-65, 795.5)"/><path d="M0 67 C 45.5 0, 85 0, 130 67 S 215 134, 260 67 S 345 0, 390, 67" fill="none" stroke="#ddd" style="opacity:0.037333333333333;stroke-width:28px;" transform="translate(-65, 1803.5)"/><path d="M0 67 C 45.5 0, 85 0, 130 67 S 215 134, 260 67 S 345 0, 390, 67" fill="none" stroke="#ddd" style="opacity:0.124;stroke-width:28px;" transform="translate(-65, 823.5)"/><path d="M0 67 C 45.5 0, 85 0, 130 67 S 215 134, 260 67 S 345 0, 390, 67" fill="none" stroke="#ddd" style="opacity:0.124;stroke-width:28px;" transform="translate(-65, 1831.5)"/><path d="M0 67 C 45.5 0, 85 0, 130 67 S 215 134, 260 67 S 345 0, 390, 67" fill="none" stroke="#ddd" style="opacity:0.037333333333333;stroke-width:28px;" transform="translate(-65, 851.5)"/><path d="M0 67 C 45.5 0, 85 0, 130 67 S 215 134, 260 67 S 345 0, 390, 67" fill="none" stroke="#ddd" style="opacity:0.037333333333333;stroke-width:28px;" transform="translate(-65, 1859.5)"/><path d="M0 67 C 45.5 0, 85 0, 130 67 S 215 134, 260 67 S 345 0, 390, 67" fill="none" stroke="#ddd" style="opacity:0.072;stroke-width:28px;" transform="translate(-65, 879.5)"/><path d="M0 67 C 45.5 0, 85 0, 130 67 S 215 134, 260 67 S 345 0, 390, 67" fill="none" stroke="#ddd" style="opacity:0.072;stroke-width:28px;" transform="translate(-65, 1887.5)"/></svg>